<svg width="320" height="238" viewBox="0 0 320 238" fill="none" xmlns="http://www.w3.org/2000/svg">
<path d="M181.426 0H0V100.174H181.426V0Z" fill="#F2F2F2"/>
<path d="M320 195.786C320 208.572 272.726 237.635 210.4 237.635C148.075 237.635 94.0522 208.572 94.0522 195.786C94.0522 192.588 99.3439 196.56 105.05 193.794C121.661 185.727 161.269 191.673 206.224 191.341C207.611 191.329 209.003 191.322 210.4 191.322C272.726 191.322 320 183.001 320 195.786Z" fill="#3F3D56"/>
<path opacity="0.1" d="M320 195.786C320 208.572 272.726 237.635 210.4 237.635C148.075 237.635 94.0522 208.572 94.0522 195.786C94.0522 192.588 99.3439 196.56 105.05 193.794C121.661 185.727 161.269 191.673 206.224 191.341C207.611 191.329 209.003 191.322 210.4 191.322C272.726 191.322 320 183.001 320 195.786Z" fill="black"/>
<path d="M319.443 195.617C319.443 208.37 268.988 218.713 206.748 218.713C144.507 218.713 94.0522 208.37 94.0522 195.617C94.0522 192.428 97.2013 189.394 102.899 186.635C119.488 178.589 157.683 172.871 202.577 172.54C203.962 172.528 205.352 172.522 206.748 172.522C268.988 172.522 319.443 182.865 319.443 195.617Z" fill="#3F3D56"/>
<path d="M212.87 174.748C227.776 174.748 239.861 161.044 239.861 144.139C239.861 127.234 227.776 113.53 212.87 113.53C197.963 113.53 185.878 127.234 185.878 144.139C185.878 161.044 197.963 174.748 212.87 174.748Z" fill="#36334A"/>
<path d="M224.394 89.0435L183.95 90.2933C183.95 90.2933 142.46 129.401 172.015 140.024C172.015 140.024 214.128 141.848 222.838 134.974C222.838 134.974 233.727 91.8555 224.394 89.0435ZM222.527 100.604L179.284 103.416C179.284 103.416 182.395 92.7929 194.839 92.7929C207.283 92.7929 221.283 89.9808 222.527 96.5424C223.772 103.104 222.527 100.604 222.527 100.604Z" fill="#3F3D56"/>
<path d="M265.98 113.53L212.591 111.659L225.08 58.9451C225.08 58.9451 275.035 55.2021 273.786 67.9907C272.537 80.7792 265.98 113.53 265.98 113.53Z" fill="#36334A"/>
<path d="M214.551 138.767C214.551 138.767 182.35 144.436 170.774 127.628C159.198 110.82 214.576 119.847 214.576 119.847L219.27 132.608L214.551 138.767Z" fill="#36334A"/>
<path d="M205.078 210.365C213.223 210.365 219.826 203.762 219.826 195.617C219.826 187.472 213.223 180.87 205.078 180.87C196.933 180.87 190.33 187.472 190.33 195.617C190.33 203.762 196.933 210.365 205.078 210.365Z" fill="#36334A"/>
<path d="M206.191 205.913C211.263 205.913 215.374 201.179 215.374 195.339C215.374 189.499 211.263 184.765 206.191 184.765C201.12 184.765 197.009 189.499 197.009 195.339C197.009 201.179 201.12 205.913 206.191 205.913Z" fill="#3F3D56"/>
<path d="M285.082 57.6498C285.082 57.6498 272.981 50.7894 272.361 67.0049L262.122 142.469H266.466L278.256 61.7037C278.256 61.7037 284.151 62.6392 285.082 62.6392C286.013 62.6392 285.082 57.6498 285.082 57.6498Z" fill="#3F3D56"/>
<path d="M297.078 65.7985C296.969 66.1917 296.778 66.5571 296.516 66.87C296.255 67.183 295.929 67.4363 295.562 67.6131C295.195 67.7898 294.794 67.8859 294.387 67.8949C293.98 67.9038 293.575 67.8255 293.2 67.665L279.374 61.7431L281.882 56.2086L295.509 62.4262C296.129 62.7089 296.627 63.204 296.915 63.8222C297.203 64.4405 297.261 65.1413 297.078 65.7985Z" fill="#36334A"/>
<path d="M211.385 136.993C211.385 136.993 188.939 134.493 182.704 156.052C176.469 177.611 177.092 194.17 171.793 192.92C166.493 191.67 155.27 187.296 155.27 187.296L156.205 193.858C156.205 193.858 175.845 203.856 178.963 193.233C182.08 182.61 183.951 143.554 201.721 144.492C219.491 145.429 222.609 143.554 222.609 143.554L211.385 136.993Z" fill="#3F3D56"/>
<path d="M168.626 126.887C168.626 126.887 151.218 129.062 144.38 141.8C137.541 154.539 134.122 177.53 134.122 177.53H140.65C140.65 177.53 144.38 131.858 163.963 134.344L168.626 126.887Z" fill="#3F3D56"/>
<path d="M156.848 197.895L129.148 180.713C129.148 180.713 127.592 174.464 145.332 171.965C145.332 171.965 178.873 183.74 175.641 188.162C172.41 192.584 161.516 199.457 156.848 197.895Z" fill="#36334A"/>
<path d="M208.292 99.6174C209.145 100.546 224.835 115.466 224.835 115.466C224.835 115.466 223.276 125.879 206.489 127.172L178.511 129.326C178.511 129.326 173.223 148.723 166.935 154.921C160.647 161.12 163.533 161.466 161.173 164.487C158.814 167.509 162.125 168.318 158.544 168.612C154.962 168.905 147.561 164.577 147.48 161.229C147.4 157.881 149.49 155.963 150.418 155.11C151.347 154.258 153.702 146.108 155.114 144.384C156.526 142.66 161.871 121.928 161.871 121.928C161.871 121.928 167.206 111.898 174.602 111.098C181.999 110.298 190.227 106.702 190.227 106.702" fill="#2F2E41"/>
<path opacity="0.1" d="M208.292 99.6174C209.145 100.546 224.835 115.466 224.835 115.466C224.835 115.466 223.276 125.879 206.489 127.172L178.511 129.326C178.511 129.326 173.223 148.723 166.935 154.921C160.647 161.12 163.533 161.466 161.173 164.487C158.814 167.509 162.125 168.318 158.544 168.612C154.962 168.905 147.561 164.577 147.48 161.229C147.4 157.881 149.49 155.963 150.418 155.11C151.347 154.258 153.702 146.108 155.114 144.384C156.526 142.66 161.871 121.928 161.871 121.928C161.871 121.928 167.206 111.898 174.602 111.098C181.999 110.298 190.227 106.702 190.227 106.702" fill="black"/>
<path d="M181.426 49.7456C181.426 49.7456 175.379 33.749 171.241 38.846C167.102 43.943 177.9 52.3131 177.9 52.3131L181.426 49.7456Z" fill="#A0616A"/>
<path d="M212.591 57.9633L209.182 56.5375C209.182 56.5375 202.924 60.7175 202.512 62.0747C202.1 63.4318 202.993 62.9569 200.535 64.151C198.077 65.3451 191.362 68.2353 190.47 68.7103C189.577 69.1852 179.471 51.5117 181.888 48.974C181.888 48.974 177.364 50.586 175.304 49.9751C175.304 49.9751 180.446 74.6132 181.228 77.9519C182.01 81.2907 183.837 81.6845 187.242 81.8069C190.647 81.9294 211.326 75.9325 211.326 75.9325L212.591 57.9633Z" fill="#575A89"/>
<path d="M159.854 163.403C159.854 163.403 159.684 166.945 160.266 167.352C160.847 167.759 164.439 176.374 158.906 177.206C153.374 178.037 150.336 176.955 148.998 177.412C147.66 177.87 125.605 176.02 125.775 172.478C125.945 168.937 136.972 169.862 136.972 169.862C136.972 169.862 147.895 164.614 149.94 161.341C151.985 158.067 159.854 163.403 159.854 163.403Z" fill="#2F2E41"/>
<path opacity="0.1" d="M159.854 163.403C159.854 163.403 159.684 166.945 160.266 167.352C160.847 167.759 164.439 176.374 158.906 177.206C153.374 178.037 150.336 176.955 148.998 177.412C147.66 177.87 125.605 176.02 125.775 172.478C125.945 168.937 136.972 169.862 136.972 169.862C136.972 169.862 147.895 164.614 149.94 161.341C151.985 158.067 159.854 163.403 159.854 163.403Z" fill="black"/>
<path d="M171.409 181.947C171.409 181.947 168.02 196.6 165.533 196.451C163.047 196.302 145.496 187.826 143.336 186.147C140.563 183.991 140.673 180.182 143.856 180.982C147.039 181.782 156.041 181.065 157.571 179.452L161.506 175.304L171.409 181.947Z" fill="#2F2E41"/>
<path d="M205.395 100.73C206.315 101.594 234.296 125.253 234.296 125.253C234.296 125.253 233.496 135.747 216.812 138.254L189.004 142.432C189.004 142.432 185.132 162.151 179.3 168.786C173.467 175.421 176.376 175.556 174.238 178.739C172.1 181.922 175.469 182.489 171.91 183.041C168.351 183.594 160.639 179.817 160.314 176.485C159.99 173.154 161.939 171.091 162.805 170.174C163.671 169.256 165.431 160.962 166.716 159.141C168.002 157.32 171.833 136.267 171.833 136.267C171.833 136.267 176.435 125.882 183.769 124.547C191.103 123.213 199.066 119.031 199.066 119.031" fill="#2F2E41"/>
<path d="M231.513 48.9739C238.89 48.9739 244.87 43.1186 244.87 35.8956C244.87 28.6727 238.89 22.8174 231.513 22.8174C224.136 22.8174 218.156 28.6727 218.156 35.8956C218.156 43.1186 224.136 48.9739 231.513 48.9739Z" fill="#A0616A"/>
<path d="M238.545 43.9889C238.545 43.9889 236.55 52.1461 239.588 56.3272C242.626 60.5083 219.27 58.5178 219.27 58.5178C219.27 58.5178 225.592 45.2814 223.259 42.2035C220.926 39.1255 238.545 43.9889 238.545 43.9889Z" fill="#A0616A"/>
<path d="M208.266 56.9554C205.439 59.9479 206.402 76.9163 206.402 76.9163L208.208 92.0702C208.208 92.0702 206.047 94.8191 206.754 95.9161C207.46 97.0131 208.615 98.0965 206.387 98.6109C204.159 99.1253 199.023 99.9509 200.667 102.362C201.204 103.044 201.778 103.697 202.389 104.316C202.912 104.868 203.535 105.509 204.241 106.224C205.894 107.887 207.995 109.933 210.327 112.09C210.987 112.706 211.664 113.326 212.358 113.952C221.253 121.973 232.314 130.463 234.602 126.389C238.434 119.564 241.097 118.589 240.921 112.779C240.745 106.97 245.678 92.0602 245.678 92.0602C245.678 92.0602 251.414 66.615 243.331 59.0306L242.067 57.0156C241.481 56.0787 240.613 55.3495 239.588 54.9313C238.562 54.513 237.431 54.4268 236.354 54.685C232.408 55.6246 226.36 56.9227 223.74 56.7131C219.691 56.3877 220.579 54.7283 220.579 54.7283C220.579 54.7283 211.092 53.9628 208.266 56.9554Z" fill="#575A89"/>
<path d="M196.092 111.304C196.092 111.304 179.837 115.236 182.221 120.777C184.606 126.318 198.678 116.192 198.678 116.192L196.092 111.304Z" fill="#A0616A"/>
<path d="M238.796 40.7189C238.469 40.3192 238.793 39.7354 239.078 39.3041C240.604 36.9943 240.896 33.7075 239.216 31.5081C238.554 30.6889 237.726 30.0216 236.788 29.5506C235.47 28.847 234.032 28.4023 232.549 28.24C231.76 28.2284 230.98 28.0735 230.246 27.783C229.782 27.5459 227.594 26.7739 227.124 26.549C226.092 26.0545 224.655 26.2682 223.993 25.3288C223.36 24.43 223.951 23.1989 224.566 22.2875C225.967 20.2112 229.51 18.4904 231.942 17.9455C233.788 17.5319 235.715 18.1134 237.426 18.9254C239.398 19.911 241.269 21.0901 243.011 22.4457C245.404 24.2318 247.762 26.2111 249.199 28.839C250.636 31.4669 250.983 34.8896 249.359 37.4049C249.021 37.9288 248.607 38.4018 248.291 38.9392C247.518 40.2503 247.379 41.836 246.833 43.258C246.427 44.2973 245.809 45.2393 245.019 46.0232C244.229 46.8072 243.285 47.4157 242.247 47.8095C240.584 48.4289 238.539 48.6001 237.556 50.087L237.098 46.9868C236.978 46.5958 236.995 46.1754 237.146 45.7957C237.297 45.416 237.573 45.0999 237.927 44.9002L240.283 42.9014C240.752 42.5798 241.109 42.1168 241.301 41.5788C241.811 39.4375 239.342 41.3852 238.796 40.7189Z" fill="#2F2E41"/>
<path opacity="0.1" d="M215.004 99.2994L204.243 106.314C206.377 108.463 209.26 111.244 212.413 114.087C215.4 112.486 218.445 110.752 221.17 109.01C231.14 102.638 239.688 86.6362 243.517 78.8738C247.347 71.1114 244.23 65.1324 244.23 65.1324C241.693 64.0131 239.008 63.2607 236.258 62.8982C231.267 62.1486 215.004 99.2994 215.004 99.2994Z" fill="black"/>
<path opacity="0.1" d="M213.639 96.8402L202.574 104.094C203.095 104.646 203.714 105.287 204.416 106C206.058 107.662 208.148 109.706 210.465 111.861C213.609 110.18 216.852 108.336 219.729 106.487C229.576 100.156 238.018 84.261 241.801 76.5501C245.583 68.8393 235.406 71.6049 235.406 71.6049C235.406 71.6049 240.687 69.2108 235.758 68.4663C230.828 67.7218 213.639 96.8402 213.639 96.8402Z" fill="black"/>
<path d="M243.682 64.0064C243.682 64.0064 246.777 69.951 242.974 77.6687C239.172 85.3865 230.684 101.296 220.785 107.632C210.886 113.968 196.724 120.209 196.724 120.209C196.724 120.209 195.38 112.87 193.113 112.043L214.663 97.9769C214.663 97.9769 230.81 61.0399 235.766 61.7851C238.497 62.1456 241.163 62.8936 243.682 64.0064Z" fill="#575A89"/>
<path d="M199.791 141.983V178.643H204.243V141.356L199.791 141.983Z" fill="#3F3D56"/>
<path d="M205.84 164.73C205.84 164.73 213.725 195.409 208.678 199.791C208.678 199.791 202.055 180.383 197.009 182.887L198.586 164.73H205.84Z" fill="#36334A"/>
<path d="M266.155 98.5043L225.951 99.7471C225.951 99.7471 190.386 134.546 219.766 145.11C219.766 145.11 255.95 151.014 264.609 144.178C264.609 144.178 275.433 101.301 266.155 98.5043ZM264.3 110L221.312 112.797C221.312 112.797 224.405 102.233 236.775 102.233C249.146 102.233 263.063 99.4364 264.3 105.961C265.537 112.486 264.3 110 264.3 110V110Z" fill="#3F3D56"/>
<path d="M257.113 210.365C279.55 210.365 297.739 189.685 297.739 164.174C297.739 138.663 279.55 117.983 257.113 117.983C234.676 117.983 216.487 138.663 216.487 164.174C216.487 189.685 234.676 210.365 257.113 210.365Z" fill="#36334A"/>
<path d="M259.061 198.122C276.119 198.122 289.948 182.798 289.948 163.896C289.948 144.993 276.119 129.67 259.061 129.67C242.002 129.67 228.174 144.993 228.174 163.896C228.174 182.798 242.002 198.122 259.061 198.122Z" fill="#3F3D56"/>
<path d="M267.083 163.418C267.082 162.82 267.022 162.224 266.904 161.637L289.948 150.174L288.382 146.746L265.104 158.029C264.869 157.789 264.61 157.573 264.33 157.386L264.348 157.39L271.155 123.684L265.134 123.548L261.132 156.718L261.515 156.798C261.204 156.862 260.903 156.964 260.618 157.103L240.486 136.542L237.64 140.513L258.325 159.446C257.806 160.438 257.494 161.523 257.409 162.637L228.244 174.482L227.617 179.468L258.018 166.747C258.302 167.446 258.704 168.093 259.207 168.657L249.856 200.348H253.301L261.15 169.947C261.498 170.059 261.862 170.117 262.228 170.119C262.935 170.112 263.625 169.906 264.219 169.525L280.551 190.999L285.563 187.571L266.426 166.773C266.865 165.709 267.089 164.569 267.083 163.418Z" fill="#36334A"/>
<path opacity="0.3" d="M30.6087 51.2C38.9074 51.2 45.6348 44.4726 45.6348 36.1739C45.6348 27.8752 38.9074 21.1478 30.6087 21.1478C22.31 21.1478 15.5826 27.8752 15.5826 36.1739C15.5826 44.4726 22.31 51.2 30.6087 51.2Z" fill="#C0A3FF"/>
<path opacity="0.3" d="M90.713 51.2C99.0117 51.2 105.739 44.4726 105.739 36.1739C105.739 27.8752 99.0117 21.1478 90.713 21.1478C82.4144 21.1478 75.687 27.8752 75.687 36.1739C75.687 44.4726 82.4144 51.2 90.713 51.2Z" fill="#C0A3FF"/>
<path opacity="0.3" d="M151.374 51.2C159.673 51.2 166.4 44.4726 166.4 36.1739C166.4 27.8752 159.673 21.1478 151.374 21.1478C143.075 21.1478 136.348 27.8752 136.348 36.1739C136.348 44.4726 143.075 51.2 151.374 51.2Z" fill="#C0A3FF"/>
<path opacity="0.3" d="M50.6435 62.3304H9.46088V66.2261H50.6435V62.3304Z" fill="#C0A3FF"/>
<path opacity="0.3" d="M111.304 62.3304H70.6783V66.2261H111.304V62.3304Z" fill="#C0A3FF"/>
<path d="M172.522 62.3304H131.339V66.2261H172.522V62.3304Z" fill="#C0A3FF"/>
<path d="M160.278 50.6435C168.577 50.6435 175.304 44.0407 175.304 35.8957C175.304 27.7507 168.577 21.1478 160.278 21.1478C151.98 21.1478 145.252 27.7507 145.252 35.8957C145.252 44.0407 151.98 50.6435 160.278 50.6435Z" fill="#C0A3FF"/>
<path d="M311.652 189.708C311.652 198.007 306.794 200.904 300.8 200.904C300.661 200.904 300.522 200.902 300.385 200.899C300.107 200.893 299.831 200.88 299.559 200.861C294.15 200.472 289.948 197.426 289.948 189.708C289.948 181.722 299.998 171.644 300.755 170.897L300.756 170.896C300.785 170.866 300.8 170.852 300.8 170.852C300.8 170.852 311.652 181.41 311.652 189.708Z" fill="#C0A3FF"/>
<path d="M300.338 199.639L304.223 194.008L300.329 200.258L300.319 200.904C300.047 200.898 299.777 200.885 299.511 200.866L299.93 192.562L299.927 192.497L299.934 192.486L299.974 191.701L296.07 185.435L299.986 191.113L299.995 191.279L300.311 185.005L296.969 178.531L300.352 183.905L300.682 170.897L300.683 170.852V170.896L300.628 181.153L303.955 177.086L300.614 182.036L300.526 187.654L303.634 182.263L300.513 188.481L300.465 191.604L304.974 184.1L300.447 192.693L300.338 199.639Z" fill="#3F3D56"/>
</svg>
