<svg width="29" height="29" viewBox="0 0 29 29" fill="none" xmlns="http://www.w3.org/2000/svg">
<g clip-path="url(#clip0_35:2)">
<path d="M12.7072 0.106247C12.5313 0.154214 11.9877 0.537951 11.5081 0.937673C11.0284 1.35339 8.662 3.2241 6.26366 5.09479C1.48295 8.83622 0.939323 9.31591 0.37971 10.4191C-0.307817 11.7782 -0.243861 12.1779 2.12251 19.261C3.30569 22.7786 4.37695 25.8805 4.52084 26.1523C4.92057 26.9198 6.10378 27.9111 7.09511 28.2788C8.39021 28.7585 10.0371 28.7425 11.1403 28.2149C11.9078 27.8631 13.5866 26.4881 13.5866 26.2163C13.5866 26.0564 12.1956 24.6174 12.0357 24.6174C11.9557 24.6174 11.636 24.8732 11.3322 25.193C10.5807 25.9764 10.0691 26.2163 9.10971 26.2163C7.99048 26.2163 7.25499 25.8325 6.66339 24.9371C6.35957 24.4575 2.39432 12.7855 2.39432 12.3698C2.39432 12.1939 2.53822 11.7782 2.69811 11.4265C2.92196 10.8988 3.86531 10.0834 7.8306 6.94955C10.5007 4.83899 12.9311 2.95229 13.2508 2.76042C13.6346 2.52058 14.0823 2.39267 14.5779 2.39267C15.2815 2.39267 15.4413 2.48861 17.5839 4.16745C26.074 10.7869 26.5377 11.2026 26.5377 12.3538C26.5377 12.5616 25.8182 14.8801 24.9228 17.5183C24.0434 20.1405 23.132 22.8426 22.9082 23.4981C22.6844 24.1537 22.3646 24.8892 22.1887 25.145C21.5012 26.1203 19.7743 26.5041 18.6072 25.9605C18.0476 25.6886 8.58208 16.1592 8.21434 15.4877C7.91052 14.928 7.9425 13.7449 8.29426 13.1053C9.09372 11.5864 11.2042 11.3465 12.4354 12.6576L12.7872 13.0413L12.3714 13.4411C10.8845 14.8001 11.0763 17.2944 12.7552 18.4616C13.3468 18.8613 13.6026 18.9413 14.434 18.9413C15.5852 18.9413 16.2568 18.6215 16.9923 17.6941C17.6318 16.9267 17.7757 15.5037 17.344 14.5283C17.1841 14.1926 17.0082 13.9047 16.9603 13.9047C16.7205 13.9047 15.2175 15.5676 15.2975 15.7754C15.4254 16.0952 14.8817 16.6229 14.45 16.6229C14.1143 16.6229 13.5866 16.0952 13.5866 15.7595C13.5866 15.5356 16.8164 12.3059 17.2961 12.05C17.8557 11.7622 19.0708 11.7622 19.6624 12.066C20.7017 12.6096 21.2613 13.9207 20.9096 15.0559C20.7497 15.5836 20.318 16.1272 19.1028 17.3584C18.2234 18.2378 17.0082 19.4689 16.4166 20.0925L15.3294 21.2277L16.1289 22.0751L16.9283 22.9225L19.6624 20.1245C23.0201 16.7188 23.4198 16.0473 23.3079 14.0966C23.196 12.146 22.3006 10.7709 20.6538 9.95545C19.8863 9.57171 19.5345 9.50778 18.4633 9.50778C17.0242 9.50778 16.2088 9.81155 15.0736 10.7869L14.434 11.3305L13.9704 10.8509C13.7145 10.579 13.1549 10.1633 12.7072 9.9395C12.0197 9.57171 11.7159 9.50778 10.5487 9.50778C8.94983 9.50778 8.11838 9.82755 7.11106 10.8189C6.08778 11.8102 5.68805 12.7855 5.68805 14.3045C5.68805 16.431 5.78401 16.5589 11.7159 22.5548C17.6638 28.5667 17.5998 28.5347 19.9023 28.5347C21.789 28.5347 22.5085 28.2948 23.4838 27.3675L24.2832 26.616L26.4578 20.3803C28.1845 15.4717 28.6802 13.8408 28.8241 12.7375L29 11.3145L28.4564 10.2753C28.1206 9.66766 27.593 8.99614 27.1773 8.64435C25.3545 7.12543 16.7524 0.473993 16.3207 0.250146C15.857 -0.00567722 13.4907 -0.0856211 12.7072 0.106247Z" fill="white"/>
</g>
<defs>
<clipPath id="clip0_35:2">
<rect width="29" height="29" fill="white"/>
</clipPath>
</defs>
</svg>
