<svg width="669" height="678" viewBox="0 0 669 678" fill="none" xmlns="http://www.w3.org/2000/svg">
<g clip-path="url(#clip0_2:41)">
<path d="M590.097 258.124C552.636 110.767 423.198 4.3963 271.266 0.129849C190.944 -2.12569 106.422 24.5232 44.8848 117.777C-65.1204 284.479 51.6449 399.675 133.051 454.414C172.379 480.913 207.817 512.775 238.336 549.078C293.323 614.353 399.106 695.465 525.087 568.375C616.399 476.259 615.049 356.278 590.097 258.124Z" fill="#F2F2F2"/>
<path d="M654.157 597.426C654.157 626.47 517.62 678 349.193 678C180.765 678 60.2139 573.574 60.2139 544.53C60.2139 515.486 180.765 572.823 349.193 572.823C517.62 572.823 654.157 568.382 654.157 597.426Z" fill="#3F3D56"/>
<path opacity="0.1" d="M654.157 597.426C654.157 626.47 517.62 678 349.193 678C180.765 678 60.2139 573.574 60.2139 544.53C60.2139 515.486 180.765 572.823 349.193 572.823C517.62 572.823 654.157 568.382 654.157 597.426Z" fill="black"/>
<path d="M654.157 597.118C654.157 626.162 517.62 649.707 349.193 649.707C180.765 649.707 60.2139 573.574 60.2139 544.53C60.2139 515.486 180.765 544.53 349.193 544.53C517.62 544.53 654.157 568.075 654.157 597.118Z" fill="#3F3D56"/>
<g opacity="0.7">
<path opacity="0.7" d="M644.062 158.291C633 179.77 597.94 205.079 576.47 194.013C554.999 182.947 555.249 139.697 566.311 118.219C571.624 107.907 580.814 100.128 591.86 96.5937C602.906 93.0594 614.903 94.0588 625.212 99.3721C635.521 104.685 643.299 113.878 646.834 124.927C650.369 135.976 649.372 147.977 644.062 158.291Z" fill="#6C63FF"/>
<path opacity="0.7" d="M578.286 199.692C577.596 198.347 576.503 197.251 575.159 196.558C573.815 195.866 572.288 195.611 570.792 195.83L574.653 188.333L582.147 192.196L578.286 199.692Z" fill="#6C63FF"/>
<path opacity="0.7" d="M572.824 191.933C573.685 193.123 574.816 194.091 576.124 194.759C577.432 195.426 578.879 195.773 580.348 195.771" stroke="#2F2E41" stroke-width="2" stroke-miterlimit="10"/>
<path opacity="0.4" d="M637.988 134.409C640.787 128.974 639.386 122.678 634.859 120.345C630.332 118.011 624.393 120.525 621.595 125.96C618.796 131.394 620.197 137.691 624.724 140.024C629.251 142.357 635.189 139.843 637.988 134.409Z" fill="white"/>
<path opacity="0.7" d="M576.269 194.282L543.643 276.413" stroke="#2F2E41" stroke-width="2" stroke-miterlimit="10"/>
</g>
<path d="M650.949 290.044C626.731 314.485 568.272 333.854 543.84 309.627C519.407 285.4 538.253 226.751 562.471 202.31C574.103 190.58 589.915 183.951 606.432 183.881C622.948 183.811 638.816 190.306 650.546 201.937C662.276 213.569 668.908 229.385 668.984 245.907C669.06 262.429 662.573 278.305 650.949 290.044Z" fill="#FF6584"/>
<path d="M543.877 318.12C543.515 315.997 542.499 314.04 540.969 312.523C539.44 311.007 537.475 310.007 535.349 309.664L543.802 301.133L552.33 309.589L543.877 318.12Z" fill="#FF6584"/>
<path d="M539.777 305.24C540.437 307.225 541.559 309.025 543.051 310.492C544.542 311.958 546.36 313.05 548.355 313.676" stroke="#2F2E41" stroke-width="2" stroke-miterlimit="10"/>
<path d="M542.212 311.688L461.908 392.732" stroke="#2F2E41" stroke-width="2" stroke-miterlimit="10"/>
<path opacity="0.4" d="M652.918 254.998C659.045 248.814 659.836 239.66 654.685 234.552C649.534 229.444 640.39 230.316 634.263 236.5C628.135 242.684 627.344 251.838 632.495 256.946C637.647 262.054 646.79 261.182 652.918 254.998Z" fill="white"/>
<path d="M575.254 210.863C567.274 244.338 527.41 291.293 493.947 283.31C460.484 275.327 446.093 215.428 454.073 181.953C457.915 165.887 467.976 152.005 482.045 143.357C496.115 134.709 513.041 132.004 529.104 135.836C545.166 139.668 559.051 149.724 567.705 163.792C576.359 177.861 579.074 194.792 575.254 210.863Z" fill="#6C63FF"/>
<path d="M498.394 290.545C496.981 288.92 495.095 287.777 493.001 287.277C490.906 286.778 488.708 286.946 486.714 287.759L489.499 276.074L501.179 278.861L498.394 290.545Z" fill="#6C63FF"/>
<path d="M488.196 281.676C489.792 283.029 491.686 283.982 493.722 284.459C495.758 284.936 497.879 284.923 499.909 284.42" stroke="#2F2E41" stroke-width="2" stroke-miterlimit="10"/>
<path opacity="0.4" d="M558.717 179.905C560.736 171.435 556.653 163.204 549.598 161.521C542.542 159.838 535.186 165.34 533.167 173.809C531.148 182.279 535.231 190.509 542.286 192.192C549.342 193.876 556.698 188.374 558.717 179.905Z" fill="white"/>
<path d="M493.761 285.902L467.299 396.902" stroke="#2F2E41" stroke-width="2" stroke-miterlimit="10"/>
<g opacity="0.8">
<path opacity="0.8" d="M204.338 504.384C186.943 521.317 145.457 534.237 128.53 516.835C111.602 499.433 125.643 458.3 143.039 441.367C147.175 437.34 152.064 434.168 157.425 432.032C162.787 429.895 168.517 428.836 174.288 428.915C180.059 428.994 185.758 430.209 191.059 432.491C196.361 434.772 201.161 438.077 205.186 442.214C209.211 446.352 212.382 451.243 214.518 456.606C216.653 461.97 217.712 467.702 217.633 473.475C217.555 479.248 216.34 484.949 214.059 490.252C211.778 495.556 208.475 500.358 204.338 504.384Z" fill="#6C63FF"/>
<path opacity="0.8" d="M128.448 522.827C128.22 521.325 127.527 519.931 126.468 518.842C125.408 517.753 124.035 517.022 122.54 516.753L128.611 510.843L134.52 516.917L128.448 522.827Z" fill="#6C63FF"/>
<path opacity="0.8" d="M125.72 513.689C126.16 515.097 126.929 516.381 127.962 517.435C128.995 518.489 130.264 519.282 131.664 519.749" stroke="#2F2E41" stroke-width="2" stroke-miterlimit="10"/>
<path opacity="0.4" d="M206.173 479.686C210.574 475.402 211.249 468.954 207.68 465.285C204.111 461.616 197.65 462.115 193.248 466.4C188.847 470.684 188.172 477.131 191.741 480.8C195.31 484.47 201.772 483.971 206.173 479.686Z" fill="white"/>
</g>
<path d="M393.135 147.536H405.356C413.374 147.536 421.063 150.722 426.732 156.394C432.401 162.065 435.586 169.757 435.586 177.777V220.244H362.905V177.777C362.905 173.806 363.687 169.874 365.206 166.205C366.725 162.536 368.952 159.202 371.759 156.394C374.566 153.586 377.899 151.358 381.567 149.838C385.234 148.319 389.165 147.536 393.135 147.536Z" fill="#2F2E41"/>
<path d="M358.446 336.854L349.274 356.146C349.274 356.146 341.797 382.062 350.269 384.832C358.74 387.603 360.394 358.237 360.394 358.237L367.41 338.792L358.446 336.854Z" fill="#FFB9B9"/>
<path opacity="0.1" d="M358.446 336.854L349.274 356.146C349.274 356.146 341.797 382.062 350.269 384.832C358.74 387.603 360.394 358.237 360.394 358.237L367.41 338.792L358.446 336.854Z" fill="black"/>
<path d="M360.183 306.66L348.583 347.276L366.951 356.946V308.594L360.183 306.66Z" fill="#575A89"/>
<path d="M391.601 198.833C391.601 198.833 390.635 214.306 388.701 214.306C386.768 214.306 382.901 232.68 382.901 232.68L399.335 243.318L419.636 224.944L413.836 210.438C413.836 210.438 410.935 204.636 411.902 198.833C412.869 193.031 391.601 198.833 391.601 198.833Z" fill="#FFB9B9"/>
<path opacity="0.1" d="M391.601 198.833C391.601 198.833 390.635 214.306 388.701 214.306C386.768 214.306 382.901 232.68 382.901 232.68L399.335 243.318L419.636 224.944L413.836 210.438C413.836 210.438 410.935 204.636 411.902 198.833C412.869 193.031 391.601 198.833 391.601 198.833Z" fill="black"/>
<path d="M452.504 352.595L454.437 373.87C454.437 373.87 461.204 399.98 469.904 398.046C478.605 396.112 465.071 370.002 465.071 370.002L461.204 349.694L452.504 352.595Z" fill="#FFB9B9"/>
<path d="M410.936 562.445C410.936 562.445 416.736 598.226 412.869 604.996C409.002 611.765 416.736 612.732 416.736 612.732L439.937 606.93V596.292C439.937 596.292 432.203 561.478 432.203 559.544C432.203 557.61 410.936 562.445 410.936 562.445Z" fill="#FFB9B9"/>
<path d="M363.567 401.915C363.567 401.915 370.334 471.542 380.968 493.785C391.601 516.027 401.268 576.951 406.102 577.918C410.935 578.885 447.67 572.116 452.504 568.248C457.337 564.38 419.636 470.575 419.636 469.608C419.636 468.641 410.935 382.573 410.935 382.573L399.335 363.232L363.567 401.915Z" fill="#2F2E41"/>
<path opacity="0.1" d="M363.567 401.915C363.567 401.915 370.334 471.542 380.968 493.785C391.601 516.027 401.268 576.951 406.102 577.918C410.935 578.885 447.67 572.116 452.504 568.248C457.337 564.38 419.636 470.575 419.636 469.608C419.636 468.641 410.935 382.573 410.935 382.573L399.335 363.232L363.567 401.915Z" fill="black"/>
<path d="M419.636 603.062C419.636 603.062 409.969 598.226 408.035 601.128L400.302 612.732C400.302 612.732 367.434 628.205 379.034 630.139C390.635 632.073 412.869 632.073 415.769 630.139C418.669 628.205 450.57 610.798 449.604 609.831C448.637 608.864 440.903 588.556 439.937 590.49C438.97 592.424 425.436 606.93 419.636 603.062Z" fill="#2F2E41"/>
<path d="M257.229 520.862C257.229 520.862 234.995 536.335 224.361 533.434C213.728 530.533 224.361 554.709 224.361 554.709L243.695 565.347L249.496 560.511C249.496 560.511 269.797 533.434 278.497 532.467C287.197 531.5 257.229 520.862 257.229 520.862Z" fill="#FFB9B9"/>
<path d="M357.767 343.891L361.633 364.199L289.131 474.444C289.131 474.444 245.629 517.961 249.496 522.796C253.363 527.632 277.53 555.676 283.33 551.808C289.131 547.94 423.503 402.882 422.536 383.541C421.569 364.199 389.668 327.451 389.668 327.451L357.767 341.957V343.891Z" fill="#2F2E41"/>
<path d="M229.195 540.203C229.195 540.203 237.895 530.533 233.062 529.566C227.625 528.607 222.138 527.961 216.628 527.632C214.694 527.632 188.593 514.093 186.66 518.928C184.727 523.763 198.26 548.907 205.994 551.808C213.728 554.709 241.762 575.017 241.762 575.017C241.762 575.017 256.263 562.445 254.329 559.544C252.396 556.643 225.328 550.841 229.195 540.203Z" fill="#2F2E41"/>
<path d="M399.335 208.504C412.148 208.504 422.536 198.113 422.536 185.295C422.536 172.476 412.148 162.085 399.335 162.085C386.521 162.085 376.134 172.476 376.134 185.295C376.134 198.113 386.521 208.504 399.335 208.504Z" fill="#FFB9B9"/>
<path d="M404.168 220.108C404.168 220.108 387.734 221.076 382.901 218.174C378.067 215.273 367.434 257.824 367.434 257.824L360.667 313.913C360.667 313.913 359.7 320.682 360.667 324.55C361.633 328.419 351 322.616 354.866 333.254C358.733 343.891 351.966 348.727 358.733 349.694C365.5 350.661 401.268 336.155 401.268 336.155L417.702 250.087L422.536 215.273L404.168 220.108Z" fill="#D0CDE1"/>
<path d="M389.873 212.252C389.873 212.252 380.967 210.438 378.067 212.372C375.167 214.306 364.534 228.812 364.534 232.68C364.534 236.548 360.667 279.099 360.667 282.967C360.667 286.835 357.767 307.143 357.767 309.077C357.767 311.012 360.246 319.324 360.246 319.324L366.467 308.11C366.467 308.11 364.534 293.605 371.3 270.395C378.067 247.186 389.873 212.252 389.873 212.252Z" fill="#575A89"/>
<path d="M399.335 226.878C399.335 226.878 412.249 206.57 413.043 208.504C413.836 210.438 428.336 213.339 428.336 213.339C428.336 213.339 454.437 231.713 452.504 239.45C450.57 247.186 437.037 305.209 437.037 305.209C437.037 305.209 424.469 335.188 434.136 356.463C443.804 377.738 432.203 385.475 432.203 385.475C432.203 385.475 424.469 389.343 426.403 393.211C428.336 397.079 404.169 411.585 401.269 400.948C398.368 390.31 362.6 326.484 370.334 303.275C378.068 280.066 399.335 226.878 399.335 226.878Z" fill="#575A89"/>
<path d="M447.67 236.548C447.67 236.548 458.304 256.857 456.371 259.758C454.437 262.659 463.137 280.066 463.137 280.066C462.536 281.621 462.536 283.346 463.137 284.901C464.104 287.802 469.904 300.374 469.904 305.209C469.904 310.044 468.938 325.517 469.904 332.287C470.871 339.056 483.438 355.496 472.804 356.463C462.171 357.43 444.77 366.134 445.737 356.463C446.703 346.793 449.604 323.583 445.737 319.715C441.87 315.847 438.97 315.847 440.903 311.012C442.837 306.176 432.203 293.605 432.203 293.605L447.67 236.548Z" fill="#575A89"/>
<path d="M418.721 179.577H382.026L373.717 160.476H424.953L418.721 179.577Z" fill="#2F2E41"/>
<path d="M377.211 193.554C378.192 193.27 378.372 190.92 377.615 188.305C376.857 185.69 375.449 183.801 374.468 184.085C373.488 184.369 373.308 186.719 374.065 189.334C374.822 191.949 376.231 193.838 377.211 193.554Z" fill="#FFB9B9"/>
<path d="M423.81 189.334C424.568 186.719 424.387 184.369 423.407 184.085C422.427 183.801 421.018 185.69 420.261 188.305C419.503 190.92 419.684 193.27 420.664 193.554C421.644 193.838 423.053 191.949 423.81 189.334Z" fill="#FFB9B9"/>
<path d="M640.659 557.229C640.659 579.692 627.311 587.535 610.844 587.535C610.462 587.535 610.079 587.529 609.701 587.524C608.936 587.504 608.181 587.467 607.436 587.416C592.573 586.365 581.03 578.119 581.03 557.229C581.03 535.614 608.636 508.34 610.72 506.312C610.721 506.312 610.722 506.311 610.722 506.311C610.723 506.311 610.724 506.311 610.724 506.31C610.725 506.31 610.725 506.309 610.725 506.308C610.725 506.308 610.726 506.307 610.726 506.306C610.803 506.234 610.844 506.193 610.844 506.193C610.844 506.193 640.659 534.765 640.659 557.229Z" fill="#F2F2F2"/>
<path d="M609.758 584.099L620.66 568.858L609.733 585.77L609.702 587.524C608.936 587.504 608.181 587.467 607.436 587.416L608.61 564.947L608.6 564.771L608.621 564.74L608.734 562.614L597.776 545.661L608.766 561.021L608.791 561.476L609.681 544.497L600.3 526.974L609.795 541.512L610.72 506.312L610.726 506.193V506.306L610.57 534.067L619.91 523.063L610.529 536.457L610.286 551.662L619.005 537.073L610.25 553.897L610.11 562.35L622.77 542.044L610.064 565.299L609.758 584.099Z" fill="#3F3D56"/>
</g>
<defs>
<clipPath id="clip0_2:41">
<rect width="669" height="678" fill="white"/>
</clipPath>
</defs>
</svg>
